<?xml version="1.0" encoding="UTF-8" standalone="no"?>
<svg xmlns="http://www.w3.org/2000/svg" version="1.2" baseProfile="tiny" viewBox="0 0 502 108">
<g stroke-width="2.00" fill="none" stroke-linecap="butt">
<path stroke="#797874" vector-effect="non-scaling-stroke" d="
  M 53.23 48.20
  C 50.73 34.68 32.60 31.01 23.25 39.83
  Q 22.00 41.00 22.00 39.29
  L 22.00 7.50
  A 0.50 0.50 0.0 0 0 21.50 7.00
  L 7.75 7.00
  A 0.50 0.50 0.0 0 0 7.25 7.50
  L 7.25 78.50
  A 0.50 0.50 0.0 0 0 7.75 79.00
  L 21.46 79.00
  A 0.51 0.51 0.0 0 0 21.97 78.49
  Q 22.03 67.63 21.93 56.74
  C 21.85 48.60 31.89 41.71 37.11 49.85
  C 39.97 54.32 38.52 72.43 38.57 78.47
  A 0.54 0.54 0.0 0 0 39.11 79.00
  L 52.64 79.00
  A 0.64 0.64 0.0 0 0 53.28 78.36
  L 53.35 67.51
  Q 53.35 66.76 53.68 67.44
  C 59.78 80.10 75.92 85.25 86.68 74.54
  Q 87.26 73.96 87.26 74.78
  L 87.25 78.37
  A 0.62 0.62 0.0 0 0 87.87 79.00
  L 101.12 79.00
  A 0.62 0.62 0.0 0 0 101.74 78.38
  L 101.80 36.69
  A 0.63 0.63 0.0 0 0 101.18 36.06
  L 87.64 35.98
  A 0.63 0.63 0.0 0 0 87.00 36.62
  L 87.01 39.40
  Q 87.02 40.07 86.49 39.66
  C 75.10 30.74 59.04 34.69 53.50 48.23
  Q 53.32 48.67 53.23 48.20"
/>
<path stroke="#797874" vector-effect="non-scaling-stroke" d="
  M 118.75 41.70
  L 118.75 36.87
  A 0.65 0.65 0.0 0 0 118.11 36.22
  L 104.64 35.98
  A 0.63 0.63 0.0 0 0 104.00 36.61
  L 104.00 78.50
  A 0.50 0.50 0.0 0 0 104.50 79.00
  L 118.23 79.00
  A 0.51 0.51 0.0 0 0 118.74 78.49
  Q 118.71 68.96 118.80 59.46
  C 118.89 49.36 125.44 44.28 134.92 49.63
  A 0.58 0.58 0.0 0 0 135.73 49.37
  L 137.18 46.16
  Q 137.75 44.90 137.75 46.28
  L 137.75 78.50
  A 0.50 0.50 0.0 0 0 138.25 79.00
  L 151.88 79.00
  A 0.63 0.63 0.0 0 0 152.51 78.37
  L 152.48 75.47
  Q 152.48 74.91 152.95 75.22
  C 162.89 81.75 183.23 83.57 188.38 70.37
  Q 188.44 70.23 188.54 70.24
  A 0.26 0.03 -89.7 0 1 188.57 70.49
  L 188.47 78.36
  A 0.64 0.63 0.4 0 0 189.11 79.00
  L 202.71 79.00
  A 0.51 0.51 0.0 0 0 203.22 78.49
  Q 203.28 67.63 203.18 56.74
  C 203.10 48.59 213.15 41.71 218.36 49.85
  C 221.23 54.33 219.76 72.48 219.77 78.49
  A 0.52 0.52 0.0 0 0 220.29 79.00
  L 233.98 79.00
  A 0.64 0.64 0.0 0 0 234.62 78.38
  Q 235.15 58.34 234.50 49.76
  Q 233.77 40.20 224.62 36.65
  Q 212.73 32.04 203.77 40.20
  Q 203.25 40.68 203.25 39.97
  L 203.25 7.50
  A 0.50 0.50 0.0 0 0 202.75 7.00
  L 189.00 7.00
  A 0.52 0.51 90.0 0 0 188.49 7.52
  L 188.46 60.45
  Q 188.46 60.94 188.20 60.52
  Q 184.73 54.85 179.93 53.32
  Q 175.55 51.93 171.31 50.17
  C 168.33 48.93 168.85 45.58 172.23 45.35
  Q 177.82 44.95 182.95 47.60
  A 0.56 0.56 0.0 0 0 183.71 47.35
  L 188.02 38.68
  A 0.50 0.50 0.0 0 0 187.78 38.01
  C 179.36 34.14 165.84 33.01 158.75 39.88
  C 154.49 44.01 153.76 51.71 158.32 56.31
  C 161.81 59.83 165.69 61.12 171.46 63.57
  C 173.00 64.23 173.82 65.66 173.24 67.21
  C 171.22 72.57 161.16 66.68 158.65 64.78
  A 0.51 0.50 -56.1 0 0 157.92 64.93
  L 153.02 73.10
  Q 152.50 73.97 152.50 72.95
  L 152.50 36.73
  A 0.59 0.59 0.0 0 0 151.93 36.14
  C 146.34 35.95 141.45 36.22 135.68 35.29
  Q 125.72 33.68 119.10 41.83
  Q 118.75 42.27 118.75 41.70"
/>
<path stroke="#797874" vector-effect="non-scaling-stroke" d="
  M 377.70 65.10
  C 382.66 79.35 399.37 85.89 411.35 74.72
  Q 412.00 74.11 412.00 75.01
  L 412.00 78.50
  A 0.50 0.50 0.0 0 0 412.50 79.00
  L 425.87 79.00
  A 0.63 0.63 0.0 0 0 426.50 78.38
  L 426.66 45.40
  Q 426.67 44.55 427.07 45.30
  L 444.86 78.55
  A 0.87 0.85 -13.7 0 0 445.62 79.00
  L 454.59 79.00
  A 0.83 0.82 13.7 0 0 455.32 78.56
  L 477.79 36.65
  A 0.44 0.44 0.0 0 0 477.40 36.00
  L 461.07 36.01
  A 0.71 0.70 -77.5 0 0 460.43 36.42
  L 450.38 58.92
  Q 450.11 59.52 449.84 58.92
  L 439.82 36.50
  A 0.84 0.83 78.0 0 0 439.06 36.00
  L 412.49 36.00
  A 0.76 0.75 90.0 0 0 411.74 36.76
  L 411.76 39.19
  Q 411.77 39.97 411.15 39.50
  C 399.03 30.43 382.71 35.16 377.76 49.55
  Q 377.38 50.65 377.37 49.49
  L 377.22 7.61
  A 0.61 0.61 0.0 0 0 376.61 7.00
  L 363.37 7.00
  A 0.88 0.88 0.0 0 0 362.49 7.88
  L 362.53 39.26
  Q 362.53 39.83 362.07 39.49
  C 350.04 30.65 333.99 34.88 328.62 49.07
  Q 328.19 50.20 328.17 48.99
  L 327.96 36.70
  A 0.59 0.58 0.0 0 0 327.38 36.13
  L 313.91 36.06
  A 0.71 0.71 0.0 0 0 313.20 36.84
  L 313.45 39.32
  Q 313.55 40.27 312.80 39.67
  Q 305.58 33.88 296.32 35.13
  C 277.91 37.61 272.11 62.07 284.63 74.25
  C 292.67 82.06 304.53 82.25 312.98 74.59
  Q 313.51 74.10 313.51 74.82
  L 313.49 78.37
  A 0.63 0.63 0.0 0 0 314.12 79.00
  L 327.49 79.00
  A 0.50 0.50 0.0 0 0 327.99 78.51
  L 328.16 66.26
  Q 328.18 64.97 328.68 66.17
  C 334.21 79.45 350.80 85.86 362.19 74.55
  Q 362.76 73.98 362.76 74.79
  L 362.75 78.37
  A 0.62 0.62 0.0 0 0 363.37 79.00
  L 376.77 79.00
  A 0.53 0.52 -89.4 0 0 377.29 78.48
  L 377.30 65.17
  Q 377.30 63.96 377.70 65.10"
/>
<path stroke="#797874" vector-effect="non-scaling-stroke" d="
  M 154.04 18.36
  A 8.66 8.66 0.0 0 0 145.38 9.70
  A 8.66 8.66 0.0 0 0 136.72 18.36
  A 8.66 8.66 0.0 0 0 145.38 27.02
  A 8.66 8.66 0.0 0 0 154.04 18.36"
/>
<path stroke="#797874" vector-effect="non-scaling-stroke" d="
  M 258.36 57.60
  A 0.30 0.30 0.0 0 1 257.83 57.62
  L 246.15 36.15
  A 0.30 0.30 0.0 0 0 245.88 35.99
  L 229.61 36.03
  A 0.30 0.30 0.0 0 0 229.35 36.48
  L 249.34 72.16
  A 0.30 0.30 0.0 0 1 249.35 72.44
  L 234.85 100.31
  A 0.30 0.30 0.0 0 0 235.11 100.75
  L 251.47 100.75
  A 0.30 0.30 0.0 0 0 251.73 100.59
  L 285.06 36.66
  A 0.30 0.30 0.0 0 0 284.80 36.22
  L 268.46 36.22
  A 0.30 0.30 0.0 0 0 268.19 36.39
  L 258.36 57.60"
/>
<path stroke="#797874" vector-effect="non-scaling-stroke" d="
  M 492.59 70.67
  A 9.49 9.49 0.0 0 0 483.10 61.18
  A 9.49 9.49 0.0 0 0 473.61 70.67
  A 9.49 9.49 0.0 0 0 483.10 80.16
  A 9.49 9.49 0.0 0 0 492.59 70.67"
/>
<path stroke="#797874" vector-effect="non-scaling-stroke" d="
  M 87.43 57.57
  A 10.05 10.05 0.0 0 0 77.38 47.52
  A 10.05 10.05 0.0 0 0 67.33 57.57
  A 10.05 10.05 0.0 0 0 77.38 67.62
  A 10.05 10.05 0.0 0 0 87.43 57.57"
/>
<path stroke="#797874" vector-effect="non-scaling-stroke" d="
  M 313.69 57.56
  A 10.05 10.05 0.0 0 0 303.64 47.51
  A 10.05 10.05 0.0 0 0 293.59 57.56
  A 10.05 10.05 0.0 0 0 303.64 67.61
  A 10.05 10.05 0.0 0 0 313.69 57.56"
/>
<path stroke="#797874" vector-effect="non-scaling-stroke" d="
  M 362.92 57.57
  A 10.04 10.04 0.0 0 0 352.88 47.53
  A 10.04 10.04 0.0 0 0 342.84 57.57
  A 10.04 10.04 0.0 0 0 352.88 67.61
  A 10.04 10.04 0.0 0 0 362.92 57.57"
/>
<path stroke="#797874" vector-effect="non-scaling-stroke" d="
  M 412.18 57.57
  A 10.04 10.04 0.0 0 0 402.14 47.53
  A 10.04 10.04 0.0 0 0 392.10 57.57
  A 10.04 10.04 0.0 0 0 402.14 67.61
  A 10.04 10.04 0.0 0 0 412.18 57.57"
/>
</g>
<g fill="#f1efe7">
<path d="
  M 0.00 0.00
  L 502.00 0.00
  L 502.00 108.00
  L 0.00 108.00
  L 0.00 0.00
  Z
  M 53.23 48.20
  C 50.73 34.68 32.60 31.01 23.25 39.83
  Q 22.00 41.00 22.00 39.29
  L 22.00 7.50
  A 0.50 0.50 0.0 0 0 21.50 7.00
  L 7.75 7.00
  A 0.50 0.50 0.0 0 0 7.25 7.50
  L 7.25 78.50
  A 0.50 0.50 0.0 0 0 7.75 79.00
  L 21.46 79.00
  A 0.51 0.51 0.0 0 0 21.97 78.49
  Q 22.03 67.63 21.93 56.74
  C 21.85 48.60 31.89 41.71 37.11 49.85
  C 39.97 54.32 38.52 72.43 38.57 78.47
  A 0.54 0.54 0.0 0 0 39.11 79.00
  L 52.64 79.00
  A 0.64 0.64 0.0 0 0 53.28 78.36
  L 53.35 67.51
  Q 53.35 66.76 53.68 67.44
  C 59.78 80.10 75.92 85.25 86.68 74.54
  Q 87.26 73.96 87.26 74.78
  L 87.25 78.37
  A 0.62 0.62 0.0 0 0 87.87 79.00
  L 101.12 79.00
  A 0.62 0.62 0.0 0 0 101.74 78.38
  L 101.80 36.69
  A 0.63 0.63 0.0 0 0 101.18 36.06
  L 87.64 35.98
  A 0.63 0.63 0.0 0 0 87.00 36.62
  L 87.01 39.40
  Q 87.02 40.07 86.49 39.66
  C 75.10 30.74 59.04 34.69 53.50 48.23
  Q 53.32 48.67 53.23 48.20
  Z
  M 118.75 41.70
  L 118.75 36.87
  A 0.65 0.65 0.0 0 0 118.11 36.22
  L 104.64 35.98
  A 0.63 0.63 0.0 0 0 104.00 36.61
  L 104.00 78.50
  A 0.50 0.50 0.0 0 0 104.50 79.00
  L 118.23 79.00
  A 0.51 0.51 0.0 0 0 118.74 78.49
  Q 118.71 68.96 118.80 59.46
  C 118.89 49.36 125.44 44.28 134.92 49.63
  A 0.58 0.58 0.0 0 0 135.73 49.37
  L 137.18 46.16
  Q 137.75 44.90 137.75 46.28
  L 137.75 78.50
  A 0.50 0.50 0.0 0 0 138.25 79.00
  L 151.88 79.00
  A 0.63 0.63 0.0 0 0 152.51 78.37
  L 152.48 75.47
  Q 152.48 74.91 152.95 75.22
  C 162.89 81.75 183.23 83.57 188.38 70.37
  Q 188.44 70.23 188.54 70.24
  A 0.26 0.03 -89.7 0 1 188.57 70.49
  L 188.47 78.36
  A 0.64 0.63 0.4 0 0 189.11 79.00
  L 202.71 79.00
  A 0.51 0.51 0.0 0 0 203.22 78.49
  Q 203.28 67.63 203.18 56.74
  C 203.10 48.59 213.15 41.71 218.36 49.85
  C 221.23 54.33 219.76 72.48 219.77 78.49
  A 0.52 0.52 0.0 0 0 220.29 79.00
  L 233.98 79.00
  A 0.64 0.64 0.0 0 0 234.62 78.38
  Q 235.15 58.34 234.50 49.76
  Q 233.77 40.20 224.62 36.65
  Q 212.73 32.04 203.77 40.20
  Q 203.25 40.68 203.25 39.97
  L 203.25 7.50
  A 0.50 0.50 0.0 0 0 202.75 7.00
  L 189.00 7.00
  A 0.52 0.51 90.0 0 0 188.49 7.52
  L 188.46 60.45
  Q 188.46 60.94 188.20 60.52
  Q 184.73 54.85 179.93 53.32
  Q 175.55 51.93 171.31 50.17
  C 168.33 48.93 168.85 45.58 172.23 45.35
  Q 177.82 44.95 182.95 47.60
  A 0.56 0.56 0.0 0 0 183.71 47.35
  L 188.02 38.68
  A 0.50 0.50 0.0 0 0 187.78 38.01
  C 179.36 34.14 165.84 33.01 158.75 39.88
  C 154.49 44.01 153.76 51.71 158.32 56.31
  C 161.81 59.83 165.69 61.12 171.46 63.57
  C 173.00 64.23 173.82 65.66 173.24 67.21
  C 171.22 72.57 161.16 66.68 158.65 64.78
  A 0.51 0.50 -56.1 0 0 157.92 64.93
  L 153.02 73.10
  Q 152.50 73.97 152.50 72.95
  L 152.50 36.73
  A 0.59 0.59 0.0 0 0 151.93 36.14
  C 146.34 35.95 141.45 36.22 135.68 35.29
  Q 125.72 33.68 119.10 41.83
  Q 118.75 42.27 118.75 41.70
  Z
  M 377.70 65.10
  C 382.66 79.35 399.37 85.89 411.35 74.72
  Q 412.00 74.11 412.00 75.01
  L 412.00 78.50
  A 0.50 0.50 0.0 0 0 412.50 79.00
  L 425.87 79.00
  A 0.63 0.63 0.0 0 0 426.50 78.38
  L 426.66 45.40
  Q 426.67 44.55 427.07 45.30
  L 444.86 78.55
  A 0.87 0.85 -13.7 0 0 445.62 79.00
  L 454.59 79.00
  A 0.83 0.82 13.7 0 0 455.32 78.56
  L 477.79 36.65
  A 0.44 0.44 0.0 0 0 477.40 36.00
  L 461.07 36.01
  A 0.71 0.70 -77.5 0 0 460.43 36.42
  L 450.38 58.92
  Q 450.11 59.52 449.84 58.92
  L 439.82 36.50
  A 0.84 0.83 78.0 0 0 439.06 36.00
  L 412.49 36.00
  A 0.76 0.75 90.0 0 0 411.74 36.76
  L 411.76 39.19
  Q 411.77 39.97 411.15 39.50
  C 399.03 30.43 382.71 35.16 377.76 49.55
  Q 377.38 50.65 377.37 49.49
  L 377.22 7.61
  A 0.61 0.61 0.0 0 0 376.61 7.00
  L 363.37 7.00
  A 0.88 0.88 0.0 0 0 362.49 7.88
  L 362.53 39.26
  Q 362.53 39.83 362.07 39.49
  C 350.04 30.65 333.99 34.88 328.62 49.07
  Q 328.19 50.20 328.17 48.99
  L 327.96 36.70
  A 0.59 0.58 0.0 0 0 327.38 36.13
  L 313.91 36.06
  A 0.71 0.71 0.0 0 0 313.20 36.84
  L 313.45 39.32
  Q 313.55 40.27 312.80 39.67
  Q 305.58 33.88 296.32 35.13
  C 277.91 37.61 272.11 62.07 284.63 74.25
  C 292.67 82.06 304.53 82.25 312.98 74.59
  Q 313.51 74.10 313.51 74.82
  L 313.49 78.37
  A 0.63 0.63 0.0 0 0 314.12 79.00
  L 327.49 79.00
  A 0.50 0.50 0.0 0 0 327.99 78.51
  L 328.16 66.26
  Q 328.18 64.97 328.68 66.17
  C 334.21 79.45 350.80 85.86 362.19 74.55
  Q 362.76 73.98 362.76 74.79
  L 362.75 78.37
  A 0.62 0.62 0.0 0 0 363.37 79.00
  L 376.77 79.00
  A 0.53 0.52 -89.4 0 0 377.29 78.48
  L 377.30 65.17
  Q 377.30 63.96 377.70 65.10
  Z
  M 154.04 18.36
  A 8.66 8.66 0.0 0 0 145.38 9.70
  A 8.66 8.66 0.0 0 0 136.72 18.36
  A 8.66 8.66 0.0 0 0 145.38 27.02
  A 8.66 8.66 0.0 0 0 154.04 18.36
  Z
  M 258.36 57.60
  A 0.30 0.30 0.0 0 1 257.83 57.62
  L 246.15 36.15
  A 0.30 0.30 0.0 0 0 245.88 35.99
  L 229.61 36.03
  A 0.30 0.30 0.0 0 0 229.35 36.48
  L 249.34 72.16
  A 0.30 0.30 0.0 0 1 249.35 72.44
  L 234.85 100.31
  A 0.30 0.30 0.0 0 0 235.11 100.75
  L 251.47 100.75
  A 0.30 0.30 0.0 0 0 251.73 100.59
  L 285.06 36.66
  A 0.30 0.30 0.0 0 0 284.80 36.22
  L 268.46 36.22
  A 0.30 0.30 0.0 0 0 268.19 36.39
  L 258.36 57.60
  Z
  M 492.59 70.67
  A 9.49 9.49 0.0 0 0 483.10 61.18
  A 9.49 9.49 0.0 0 0 473.61 70.67
  A 9.49 9.49 0.0 0 0 483.10 80.16
  A 9.49 9.49 0.0 0 0 492.59 70.67
  Z"
/>
<circle cx="77.38" cy="57.57" r="10.05"/>
<circle cx="303.64" cy="57.56" r="10.05"/>
<circle cx="352.88" cy="57.57" r="10.04"/>
<circle cx="402.14" cy="57.57" r="10.04"/>
</g>
<g fill="#000000">
<path d="
  M 53.50 48.23
  C 59.04 34.69 75.10 30.74 86.49 39.66
  Q 87.02 40.07 87.01 39.40
  L 87.00 36.62
  A 0.63 0.63 0.0 0 1 87.64 35.98
  L 101.18 36.06
  A 0.63 0.63 0.0 0 1 101.80 36.69
  L 101.74 78.38
  A 0.62 0.62 0.0 0 1 101.12 79.00
  L 87.87 79.00
  A 0.62 0.62 0.0 0 1 87.25 78.37
  L 87.26 74.78
  Q 87.26 73.96 86.68 74.54
  C 75.92 85.25 59.78 80.10 53.68 67.44
  Q 53.35 66.76 53.35 67.51
  L 53.28 78.36
  A 0.64 0.64 0.0 0 1 52.64 79.00
  L 39.11 79.00
  A 0.54 0.54 0.0 0 1 38.57 78.47
  C 38.52 72.43 39.97 54.32 37.11 49.85
  C 31.89 41.71 21.85 48.60 21.93 56.74
  Q 22.03 67.63 21.97 78.49
  A 0.51 0.51 0.0 0 1 21.46 79.00
  L 7.75 79.00
  A 0.50 0.50 0.0 0 1 7.25 78.50
  L 7.25 7.50
  A 0.50 0.50 0.0 0 1 7.75 7.00
  L 21.50 7.00
  A 0.50 0.50 0.0 0 1 22.00 7.50
  L 22.00 39.29
  Q 22.00 41.00 23.25 39.83
  C 32.60 31.01 50.73 34.68 53.23 48.20
  Q 53.32 48.67 53.50 48.23
  Z
  M 87.43 57.57
  A 10.05 10.05 0.0 0 0 77.38 47.52
  A 10.05 10.05 0.0 0 0 67.33 57.57
  A 10.05 10.05 0.0 0 0 77.38 67.62
  A 10.05 10.05 0.0 0 0 87.43 57.57
  Z"
/>
<path d="
  M 119.10 41.83
  Q 125.72 33.68 135.68 35.29
  C 141.45 36.22 146.34 35.95 151.93 36.14
  A 0.59 0.59 0.0 0 1 152.50 36.73
  L 152.50 72.95
  Q 152.50 73.97 153.02 73.10
  L 157.92 64.93
  A 0.51 0.50 -56.1 0 1 158.65 64.78
  C 161.16 66.68 171.22 72.57 173.24 67.21
  C 173.82 65.66 173.00 64.23 171.46 63.57
  C 165.69 61.12 161.81 59.83 158.32 56.31
  C 153.76 51.71 154.49 44.01 158.75 39.88
  C 165.84 33.01 179.36 34.14 187.78 38.01
  A 0.50 0.50 0.0 0 1 188.02 38.68
  L 183.71 47.35
  A 0.56 0.56 0.0 0 1 182.95 47.60
  Q 177.82 44.95 172.23 45.35
  C 168.85 45.58 168.33 48.93 171.31 50.17
  Q 175.55 51.93 179.93 53.32
  Q 184.73 54.85 188.20 60.52
  Q 188.46 60.94 188.46 60.45
  L 188.49 7.52
  A 0.52 0.51 90.0 0 1 189.00 7.00
  L 202.75 7.00
  A 0.50 0.50 0.0 0 1 203.25 7.50
  L 203.25 39.97
  Q 203.25 40.68 203.77 40.20
  Q 212.73 32.04 224.62 36.65
  Q 233.77 40.20 234.50 49.76
  Q 235.15 58.34 234.62 78.38
  A 0.64 0.64 0.0 0 1 233.98 79.00
  L 220.29 79.00
  A 0.52 0.52 0.0 0 1 219.77 78.49
  C 219.76 72.48 221.23 54.33 218.36 49.85
  C 213.15 41.71 203.10 48.59 203.18 56.74
  Q 203.28 67.63 203.22 78.49
  A 0.51 0.51 0.0 0 1 202.71 79.00
  L 189.11 79.00
  A 0.64 0.63 0.4 0 1 188.47 78.36
  L 188.57 70.49
  A 0.26 0.03 -89.7 0 0 188.54 70.24
  Q 188.44 70.23 188.38 70.37
  C 183.23 83.57 162.89 81.75 152.95 75.22
  Q 152.48 74.91 152.48 75.47
  L 152.51 78.37
  A 0.63 0.63 0.0 0 1 151.88 79.00
  L 138.25 79.00
  A 0.50 0.50 0.0 0 1 137.75 78.50
  L 137.75 46.28
  Q 137.75 44.90 137.18 46.16
  L 135.73 49.37
  A 0.58 0.58 0.0 0 1 134.92 49.63
  C 125.44 44.28 118.89 49.36 118.80 59.46
  Q 118.71 68.96 118.74 78.49
  A 0.51 0.51 0.0 0 1 118.23 79.00
  L 104.50 79.00
  A 0.50 0.50 0.0 0 1 104.00 78.50
  L 104.00 36.61
  A 0.63 0.63 0.0 0 1 104.64 35.98
  L 118.11 36.22
  A 0.65 0.65 0.0 0 1 118.75 36.87
  L 118.75 41.70
  Q 118.75 42.27 119.10 41.83
  Z"
/>
<path d="
  M 377.70 65.10
  Q 377.30 63.96 377.30 65.17
  L 377.29 78.48
  A 0.53 0.52 -89.4 0 1 376.77 79.00
  L 363.37 79.00
  A 0.62 0.62 0.0 0 1 362.75 78.37
  L 362.76 74.79
  Q 362.76 73.98 362.19 74.55
  C 350.80 85.86 334.21 79.45 328.68 66.17
  Q 328.18 64.97 328.16 66.26
  L 327.99 78.51
  A 0.50 0.50 0.0 0 1 327.49 79.00
  L 314.12 79.00
  A 0.63 0.63 0.0 0 1 313.49 78.37
  L 313.51 74.82
  Q 313.51 74.10 312.98 74.59
  C 304.53 82.25 292.67 82.06 284.63 74.25
  C 272.11 62.07 277.91 37.61 296.32 35.13
  Q 305.58 33.88 312.80 39.67
  Q 313.55 40.27 313.45 39.32
  L 313.20 36.84
  A 0.71 0.71 0.0 0 1 313.91 36.06
  L 327.38 36.13
  A 0.59 0.58 0.0 0 1 327.96 36.70
  L 328.17 48.99
  Q 328.19 50.20 328.62 49.07
  C 333.99 34.88 350.04 30.65 362.07 39.49
  Q 362.53 39.83 362.53 39.26
  L 362.49 7.88
  A 0.88 0.88 0.0 0 1 363.37 7.00
  L 376.61 7.00
  A 0.61 0.61 0.0 0 1 377.22 7.61
  L 377.37 49.49
  Q 377.38 50.65 377.76 49.55
  C 382.71 35.16 399.03 30.43 411.15 39.50
  Q 411.77 39.97 411.76 39.19
  L 411.74 36.76
  A 0.76 0.75 -90.0 0 1 412.49 36.00
  L 439.06 36.00
  A 0.84 0.83 78.0 0 1 439.82 36.50
  L 449.84 58.92
  Q 450.11 59.52 450.38 58.92
  L 460.43 36.42
  A 0.71 0.70 -77.5 0 1 461.07 36.01
  L 477.40 36.00
  A 0.44 0.44 0.0 0 1 477.79 36.65
  L 455.32 78.56
  A 0.83 0.82 13.7 0 1 454.59 79.00
  L 445.62 79.00
  A 0.87 0.85 -13.7 0 1 444.86 78.55
  L 427.07 45.30
  Q 426.67 44.55 426.66 45.40
  L 426.50 78.38
  A 0.63 0.63 0.0 0 1 425.87 79.00
  L 412.50 79.00
  A 0.50 0.50 0.0 0 1 412.00 78.50
  L 412.00 75.01
  Q 412.00 74.11 411.35 74.72
  C 399.37 85.89 382.66 79.35 377.70 65.10
  Z
  M 313.69 57.56
  A 10.05 10.05 0.0 0 0 303.64 47.51
  A 10.05 10.05 0.0 0 0 293.59 57.56
  A 10.05 10.05 0.0 0 0 303.64 67.61
  A 10.05 10.05 0.0 0 0 313.69 57.56
  Z
  M 362.92 57.57
  A 10.04 10.04 0.0 0 0 352.88 47.53
  A 10.04 10.04 0.0 0 0 342.84 57.57
  A 10.04 10.04 0.0 0 0 352.88 67.61
  A 10.04 10.04 0.0 0 0 362.92 57.57
  Z
  M 412.18 57.57
  A 10.04 10.04 0.0 0 0 402.14 47.53
  A 10.04 10.04 0.0 0 0 392.10 57.57
  A 10.04 10.04 0.0 0 0 402.14 67.61
  A 10.04 10.04 0.0 0 0 412.18 57.57
  Z"
/>
<circle cx="145.38" cy="18.36" r="8.66"/>
<path d="
  M 258.36 57.60
  L 268.19 36.39
  A 0.30 0.30 0.0 0 1 268.46 36.22
  L 284.80 36.22
  A 0.30 0.30 0.0 0 1 285.06 36.66
  L 251.73 100.59
  A 0.30 0.30 0.0 0 1 251.47 100.75
  L 235.11 100.75
  A 0.30 0.30 0.0 0 1 234.85 100.31
  L 249.35 72.44
  A 0.30 0.30 0.0 0 0 249.34 72.16
  L 229.35 36.48
  A 0.30 0.30 0.0 0 1 229.61 36.03
  L 245.88 35.99
  A 0.30 0.30 0.0 0 1 246.15 36.15
  L 257.83 57.62
  A 0.30 0.30 0.0 0 0 258.36 57.60
  Z"
/>
<circle cx="483.10" cy="70.67" r="9.49"/>
</g>
</svg>
