<?xml version="1.0" encoding="UTF-8" standalone="no"?>
<svg xmlns="http://www.w3.org/2000/svg" version="1.2" baseProfile="tiny" viewBox="0 0 500 108">
<g stroke-width="2.00" fill="none" stroke-linecap="butt">
<path stroke="#797874" vector-effect="non-scaling-stroke" d="
  M 22.02 39.94
  L 22.01 7.63
  A 0.63 0.63 0.0 0 0 21.38 7.00
  L 7.75 7.00
  A 0.50 0.50 0.0 0 0 7.25 7.50
  L 7.25 78.50
  A 0.50 0.50 0.0 0 0 7.75 79.00
  L 21.48 79.00
  A 0.52 0.52 0.0 0 0 22.00 78.48
  Q 21.97 70.46 22.02 62.46
  Q 22.06 54.67 22.30 53.58
  C 23.84 46.56 34.02 43.14 37.63 50.92
  Q 38.51 52.82 38.49 57.73
  Q 38.45 68.06 38.58 78.48
  A 0.53 0.53 0.0 0 0 39.11 79.00
  L 53.00 79.00
  A 0.50 0.50 0.0 0 0 53.50 78.50
  L 53.50 67.77
  Q 53.50 67.14 53.77 67.71
  C 59.75 80.44 76.24 85.03 86.69 74.55
  Q 87.26 73.97 87.26 74.78
  L 87.25 78.37
  A 0.63 0.62 90.0 0 0 87.87 79.00
  L 101.23 79.00
  A 0.54 0.54 0.0 0 0 101.77 78.46
  L 101.74 36.66
  A 0.58 0.58 0.0 0 0 101.16 36.08
  L 87.64 35.96
  A 0.64 0.64 0.0 0 0 87.00 36.61
  L 87.01 39.44
  Q 87.01 39.94 86.61 39.64
  C 75.18 30.92 59.55 34.43 53.60 47.77
  Q 53.40 48.22 53.29 47.74
  Q 51.88 41.71 47.55 38.81
  Q 34.40 30.01 22.59 40.20
  Q 22.02 40.69 22.02 39.94"
/>
<path stroke="#797874" vector-effect="non-scaling-stroke" d="
  M 188.27 61.69
  C 187.80 57.37 182.20 54.03 178.29 52.76
  C 174.98 51.69 166.99 49.69 170.13 46.03
  A 1.28 1.26 16.2 0 1 170.95 45.59
  Q 177.28 44.70 182.88 47.72
  A 0.65 0.65 0.0 0 0 183.78 47.43
  L 188.02 38.69
  A 0.59 0.59 0.0 0 0 187.73 37.90
  C 178.90 33.97 159.50 32.32 155.92 44.55
  Q 152.88 54.95 163.52 59.99
  Q 167.89 62.06 172.30 64.04
  Q 174.37 64.96 173.33 66.97
  C 170.58 72.24 161.62 67.11 158.59 64.66
  A 0.47 0.46 -54.5 0 0 157.90 64.78
  L 153.02 73.06
  Q 152.75 73.52 152.74 72.98
  L 152.43 36.66
  A 0.69 0.69 0.0 0 0 151.74 35.98
  C 146.21 36.03 141.49 36.21 135.69 35.24
  Q 125.67 33.56 119.20 41.90
  Q 118.75 42.47 118.75 41.74
  L 118.75 36.62
  A 0.63 0.62 -0.0 0 0 118.12 36.00
  L 104.40 36.01
  A 0.40 0.40 0.0 0 0 104.00 36.41
  L 104.00 78.50
  A 0.50 0.50 0.0 0 0 104.50 79.00
  L 118.22 79.00
  A 0.52 0.52 0.0 0 0 118.74 78.48
  Q 118.69 69.34 118.80 60.22
  Q 118.88 54.82 119.72 52.78
  C 122.19 46.78 129.81 46.66 134.87 49.75
  A 0.53 0.53 0.0 0 0 135.62 49.52
  L 137.22 46.17
  Q 137.75 45.06 137.75 46.29
  L 137.75 78.50
  A 0.50 0.50 0.0 0 0 138.25 79.00
  L 151.75 79.00
  A 0.71 0.70 9.1 0 0 152.42 78.52
  C 152.70 77.72 152.23 75.99 152.60 75.52
  A 0.44 0.43 35.5 0 1 153.17 75.43
  C 162.59 81.51 182.22 83.75 188.22 70.97
  Q 188.52 70.34 188.51 71.03
  L 188.49 78.37
  A 0.63 0.63 0.0 0 0 189.12 79.00
  L 202.70 79.00
  A 0.60 0.60 0.0 0 0 203.30 78.39
  Q 203.15 69.33 203.31 60.28
  Q 203.41 54.16 203.52 53.61
  C 205.35 44.23 219.78 44.29 219.75 54.00
  Q 219.72 66.24 219.78 78.49
  A 0.52 0.52 0.0 0 0 220.30 79.00
  L 234.13 79.00
  A 0.52 0.52 0.0 0 0 234.65 78.49
  Q 235.20 53.63 234.51 48.75
  Q 233.33 40.33 225.31 36.92
  Q 213.16 31.76 203.72 40.12
  Q 203.24 40.55 203.24 39.90
  L 203.28 7.54
  A 0.55 0.54 0.0 0 0 202.73 7.00
  L 189.63 7.00
  A 1.13 1.12 0.0 0 0 188.50 8.12
  L 188.50 61.75
  Q 188.50 63.75 188.27 61.69"
/>
<path stroke="#797874" vector-effect="non-scaling-stroke" d="
  M 377.50 49.97
  L 377.50 7.50
  A 0.50 0.50 0.0 0 0 377.00 7.00
  L 362.90 7.01
  A 0.40 0.40 0.0 0 0 362.50 7.41
  L 362.50 39.46
  Q 362.50 39.98 362.10 39.65
  C 350.24 29.89 334.07 35.38 328.62 49.00
  Q 328.25 49.95 328.25 48.93
  L 328.25 36.60
  A 0.59 0.59 0.0 0 0 327.66 36.01
  L 313.85 36.03
  A 0.61 0.61 0.0 0 0 313.24 36.64
  L 313.26 39.18
  Q 313.26 39.90 312.68 39.47
  Q 305.64 34.23 297.43 34.96
  C 271.41 37.27 271.58 78.08 297.63 80.20
  Q 306.09 80.89 312.94 74.61
  Q 313.50 74.09 313.50 74.86
  L 313.50 77.87
  A 1.13 1.12 90.0 0 0 314.62 79.00
  L 327.75 79.00
  A 0.50 0.49 -0.6 0 0 328.25 78.50
  L 328.21 66.28
  Q 328.20 65.30 328.56 66.21
  C 334.05 80.15 350.92 85.24 362.16 74.61
  Q 362.75 74.04 362.75 74.86
  L 362.75 77.87
  A 1.13 1.13 0.0 0 0 363.88 79.00
  L 376.89 79.00
  A 0.51 0.51 0.0 0 0 377.40 78.49
  L 377.48 65.07
  Q 377.48 64.62 377.62 65.05
  Q 382.18 79.19 396.75 80.27
  Q 405.09 80.89 411.39 74.59
  Q 412.00 73.98 412.00 74.84
  L 412.01 78.38
  A 0.62 0.62 0.0 0 0 412.63 79.00
  L 426.03 79.00
  A 0.54 0.53 0.0 0 0 426.57 78.47
  L 426.66 45.52
  Q 426.66 44.71 427.05 45.42
  L 444.85 78.55
  A 0.88 0.87 75.3 0 0 445.61 79.00
  L 454.61 79.00
  A 0.85 0.85 0.0 0 0 455.36 78.55
  L 477.80 36.69
  A 0.45 0.45 0.0 0 0 477.40 36.02
  L 461.14 35.99
  A 0.79 0.79 0.0 0 0 460.42 36.46
  L 450.36 58.78
  Q 450.09 59.38 449.82 58.78
  L 439.84 36.47
  A 0.79 0.79 0.0 0 0 439.12 36.00
  L 412.37 36.00
  A 0.62 0.62 0.0 0 0 411.75 36.63
  L 411.76 39.17
  Q 411.76 39.86 411.21 39.45
  C 399.06 30.48 382.08 35.07 377.69 49.99
  Q 377.50 50.64 377.50 49.97"
/>
<path stroke="#797874" vector-effect="non-scaling-stroke" d="
  M 154.09 18.32
  A 8.71 8.71 0.0 0 0 145.38 9.61
  A 8.71 8.71 0.0 0 0 136.67 18.32
  A 8.71 8.71 0.0 0 0 145.38 27.03
  A 8.71 8.71 0.0 0 0 154.09 18.32"
/>
<path stroke="#797874" vector-effect="non-scaling-stroke" d="
  M 258.41 57.37
  A 0.36 0.36 0.0 0 1 257.77 57.39
  L 246.21 36.19
  A 0.36 0.36 0.0 0 0 245.90 36.00
  L 229.63 36.01
  A 0.36 0.36 0.0 0 0 229.32 36.55
  L 249.29 72.17
  A 0.36 0.36 0.0 0 1 249.30 72.51
  L 234.82 100.22
  A 0.36 0.36 0.0 0 0 235.13 100.75
  L 251.46 100.75
  A 0.36 0.36 0.0 0 0 251.78 100.56
  L 285.21 36.47
  A 0.36 0.36 0.0 0 0 284.89 35.95
  L 268.53 36.15
  A 0.36 0.36 0.0 0 0 268.20 36.36
  L 258.41 57.37"
/>
<path stroke="#797874" vector-effect="non-scaling-stroke" d="
  M 492.62 70.68
  A 9.53 9.53 0.0 0 0 483.09 61.15
  A 9.53 9.53 0.0 0 0 473.56 70.68
  A 9.53 9.53 0.0 0 0 483.09 80.21
  A 9.53 9.53 0.0 0 0 492.62 70.68"
/>
<path stroke="#797874" vector-effect="non-scaling-stroke" d="
  M 87.38 57.57
  A 9.99 9.99 0.0 0 0 77.39 47.58
  A 9.99 9.99 0.0 0 0 67.40 57.57
  A 9.99 9.99 0.0 0 0 77.39 67.56
  A 9.99 9.99 0.0 0 0 87.38 57.57"
/>
<path stroke="#797874" vector-effect="non-scaling-stroke" d="
  M 313.63 57.58
  A 9.99 9.99 0.0 0 0 303.64 47.59
  A 9.99 9.99 0.0 0 0 293.65 57.58
  A 9.99 9.99 0.0 0 0 303.64 67.57
  A 9.99 9.99 0.0 0 0 313.63 57.58"
/>
<path stroke="#797874" vector-effect="non-scaling-stroke" d="
  M 362.89 57.59
  A 9.99 9.99 0.0 0 0 352.90 47.60
  A 9.99 9.99 0.0 0 0 342.91 57.59
  A 9.99 9.99 0.0 0 0 352.90 67.58
  A 9.99 9.99 0.0 0 0 362.89 57.59"
/>
<path stroke="#797874" vector-effect="non-scaling-stroke" d="
  M 412.13 57.59
  A 9.99 9.99 0.0 0 0 402.14 47.60
  A 9.99 9.99 0.0 0 0 392.15 57.59
  A 9.99 9.99 0.0 0 0 402.14 67.58
  A 9.99 9.99 0.0 0 0 412.13 57.59"
/>
</g>
<g fill="#000000">
<path d="
  M 0.00 0.00
  L 500.00 0.00
  L 500.00 108.00
  L 0.00 108.00
  L 0.00 0.00
  Z
  M 22.02 39.94
  L 22.01 7.63
  A 0.63 0.63 0.0 0 0 21.38 7.00
  L 7.75 7.00
  A 0.50 0.50 0.0 0 0 7.25 7.50
  L 7.25 78.50
  A 0.50 0.50 0.0 0 0 7.75 79.00
  L 21.48 79.00
  A 0.52 0.52 0.0 0 0 22.00 78.48
  Q 21.97 70.46 22.02 62.46
  Q 22.06 54.67 22.30 53.58
  C 23.84 46.56 34.02 43.14 37.63 50.92
  Q 38.51 52.82 38.49 57.73
  Q 38.45 68.06 38.58 78.48
  A 0.53 0.53 0.0 0 0 39.11 79.00
  L 53.00 79.00
  A 0.50 0.50 0.0 0 0 53.50 78.50
  L 53.50 67.77
  Q 53.50 67.14 53.77 67.71
  C 59.75 80.44 76.24 85.03 86.69 74.55
  Q 87.26 73.97 87.26 74.78
  L 87.25 78.37
  A 0.63 0.62 90.0 0 0 87.87 79.00
  L 101.23 79.00
  A 0.54 0.54 0.0 0 0 101.77 78.46
  L 101.74 36.66
  A 0.58 0.58 0.0 0 0 101.16 36.08
  L 87.64 35.96
  A 0.64 0.64 0.0 0 0 87.00 36.61
  L 87.01 39.44
  Q 87.01 39.94 86.61 39.64
  C 75.18 30.92 59.55 34.43 53.60 47.77
  Q 53.40 48.22 53.29 47.74
  Q 51.88 41.71 47.55 38.81
  Q 34.40 30.01 22.59 40.20
  Q 22.02 40.69 22.02 39.94
  Z
  M 188.27 61.69
  C 187.80 57.37 182.20 54.03 178.29 52.76
  C 174.98 51.69 166.99 49.69 170.13 46.03
  A 1.28 1.26 16.2 0 1 170.95 45.59
  Q 177.28 44.70 182.88 47.72
  A 0.65 0.65 0.0 0 0 183.78 47.43
  L 188.02 38.69
  A 0.59 0.59 0.0 0 0 187.73 37.90
  C 178.90 33.97 159.50 32.32 155.92 44.55
  Q 152.88 54.95 163.52 59.99
  Q 167.89 62.06 172.30 64.04
  Q 174.37 64.96 173.33 66.97
  C 170.58 72.24 161.62 67.11 158.59 64.66
  A 0.47 0.46 -54.5 0 0 157.90 64.78
  L 153.02 73.06
  Q 152.75 73.52 152.74 72.98
  L 152.43 36.66
  A 0.69 0.69 0.0 0 0 151.74 35.98
  C 146.21 36.03 141.49 36.21 135.69 35.24
  Q 125.67 33.56 119.20 41.90
  Q 118.75 42.47 118.75 41.74
  L 118.75 36.62
  A 0.63 0.62 -0.0 0 0 118.12 36.00
  L 104.40 36.01
  A 0.40 0.40 0.0 0 0 104.00 36.41
  L 104.00 78.50
  A 0.50 0.50 0.0 0 0 104.50 79.00
  L 118.22 79.00
  A 0.52 0.52 0.0 0 0 118.74 78.48
  Q 118.69 69.34 118.80 60.22
  Q 118.88 54.82 119.72 52.78
  C 122.19 46.78 129.81 46.66 134.87 49.75
  A 0.53 0.53 0.0 0 0 135.62 49.52
  L 137.22 46.17
  Q 137.75 45.06 137.75 46.29
  L 137.75 78.50
  A 0.50 0.50 0.0 0 0 138.25 79.00
  L 151.75 79.00
  A 0.71 0.70 9.1 0 0 152.42 78.52
  C 152.70 77.72 152.23 75.99 152.60 75.52
  A 0.44 0.43 35.5 0 1 153.17 75.43
  C 162.59 81.51 182.22 83.75 188.22 70.97
  Q 188.52 70.34 188.51 71.03
  L 188.49 78.37
  A 0.63 0.63 0.0 0 0 189.12 79.00
  L 202.70 79.00
  A 0.60 0.60 0.0 0 0 203.30 78.39
  Q 203.15 69.33 203.31 60.28
  Q 203.41 54.16 203.52 53.61
  C 205.35 44.23 219.78 44.29 219.75 54.00
  Q 219.72 66.24 219.78 78.49
  A 0.52 0.52 0.0 0 0 220.30 79.00
  L 234.13 79.00
  A 0.52 0.52 0.0 0 0 234.65 78.49
  Q 235.20 53.63 234.51 48.75
  Q 233.33 40.33 225.31 36.92
  Q 213.16 31.76 203.72 40.12
  Q 203.24 40.55 203.24 39.90
  L 203.28 7.54
  A 0.55 0.54 0.0 0 0 202.73 7.00
  L 189.63 7.00
  A 1.13 1.12 0.0 0 0 188.50 8.12
  L 188.50 61.75
  Q 188.50 63.75 188.27 61.69
  Z
  M 377.50 49.97
  L 377.50 7.50
  A 0.50 0.50 0.0 0 0 377.00 7.00
  L 362.90 7.01
  A 0.40 0.40 0.0 0 0 362.50 7.41
  L 362.50 39.46
  Q 362.50 39.98 362.10 39.65
  C 350.24 29.89 334.07 35.38 328.62 49.00
  Q 328.25 49.95 328.25 48.93
  L 328.25 36.60
  A 0.59 0.59 0.0 0 0 327.66 36.01
  L 313.85 36.03
  A 0.61 0.61 0.0 0 0 313.24 36.64
  L 313.26 39.18
  Q 313.26 39.90 312.68 39.47
  Q 305.64 34.23 297.43 34.96
  C 271.41 37.27 271.58 78.08 297.63 80.20
  Q 306.09 80.89 312.94 74.61
  Q 313.50 74.09 313.50 74.86
  L 313.50 77.87
  A 1.13 1.12 90.0 0 0 314.62 79.00
  L 327.75 79.00
  A 0.50 0.49 -0.6 0 0 328.25 78.50
  L 328.21 66.28
  Q 328.20 65.30 328.56 66.21
  C 334.05 80.15 350.92 85.24 362.16 74.61
  Q 362.75 74.04 362.75 74.86
  L 362.75 77.87
  A 1.13 1.13 0.0 0 0 363.88 79.00
  L 376.89 79.00
  A 0.51 0.51 0.0 0 0 377.40 78.49
  L 377.48 65.07
  Q 377.48 64.62 377.62 65.05
  Q 382.18 79.19 396.75 80.27
  Q 405.09 80.89 411.39 74.59
  Q 412.00 73.98 412.00 74.84
  L 412.01 78.38
  A 0.62 0.62 0.0 0 0 412.63 79.00
  L 426.03 79.00
  A 0.54 0.53 0.0 0 0 426.57 78.47
  L 426.66 45.52
  Q 426.66 44.71 427.05 45.42
  L 444.85 78.55
  A 0.88 0.87 75.3 0 0 445.61 79.00
  L 454.61 79.00
  A 0.85 0.85 0.0 0 0 455.36 78.55
  L 477.80 36.69
  A 0.45 0.45 0.0 0 0 477.40 36.02
  L 461.14 35.99
  A 0.79 0.79 0.0 0 0 460.42 36.46
  L 450.36 58.78
  Q 450.09 59.38 449.82 58.78
  L 439.84 36.47
  A 0.79 0.79 0.0 0 0 439.12 36.00
  L 412.37 36.00
  A 0.62 0.62 0.0 0 0 411.75 36.63
  L 411.76 39.17
  Q 411.76 39.86 411.21 39.45
  C 399.06 30.48 382.08 35.07 377.69 49.99
  Q 377.50 50.64 377.50 49.97
  Z
  M 154.09 18.32
  A 8.71 8.71 0.0 0 0 145.38 9.61
  A 8.71 8.71 0.0 0 0 136.67 18.32
  A 8.71 8.71 0.0 0 0 145.38 27.03
  A 8.71 8.71 0.0 0 0 154.09 18.32
  Z
  M 258.41 57.37
  A 0.36 0.36 0.0 0 1 257.77 57.39
  L 246.21 36.19
  A 0.36 0.36 0.0 0 0 245.90 36.00
  L 229.63 36.01
  A 0.36 0.36 0.0 0 0 229.32 36.55
  L 249.29 72.17
  A 0.36 0.36 0.0 0 1 249.30 72.51
  L 234.82 100.22
  A 0.36 0.36 0.0 0 0 235.13 100.75
  L 251.46 100.75
  A 0.36 0.36 0.0 0 0 251.78 100.56
  L 285.21 36.47
  A 0.36 0.36 0.0 0 0 284.89 35.95
  L 268.53 36.15
  A 0.36 0.36 0.0 0 0 268.20 36.36
  L 258.41 57.37
  Z
  M 492.62 70.68
  A 9.53 9.53 0.0 0 0 483.09 61.15
  A 9.53 9.53 0.0 0 0 473.56 70.68
  A 9.53 9.53 0.0 0 0 483.09 80.21
  A 9.53 9.53 0.0 0 0 492.62 70.68
  Z"
/>
<circle cx="77.39" cy="57.57" r="9.99"/>
<circle cx="303.64" cy="57.58" r="9.99"/>
<circle cx="352.90" cy="57.59" r="9.99"/>
<circle cx="402.14" cy="57.59" r="9.99"/>
</g>
<g fill="#f1efe7">
<path d="
  M 22.59 40.20
  Q 34.40 30.01 47.55 38.81
  Q 51.88 41.71 53.29 47.74
  Q 53.40 48.22 53.60 47.77
  C 59.55 34.43 75.18 30.92 86.61 39.64
  Q 87.01 39.94 87.01 39.44
  L 87.00 36.61
  A 0.64 0.64 0.0 0 1 87.64 35.96
  L 101.16 36.08
  A 0.58 0.58 0.0 0 1 101.74 36.66
  L 101.77 78.46
  A 0.54 0.54 0.0 0 1 101.23 79.00
  L 87.87 79.00
  A 0.63 0.62 -90.0 0 1 87.25 78.37
  L 87.26 74.78
  Q 87.26 73.97 86.69 74.55
  C 76.24 85.03 59.75 80.44 53.77 67.71
  Q 53.50 67.14 53.50 67.77
  L 53.50 78.50
  A 0.50 0.50 0.0 0 1 53.00 79.00
  L 39.11 79.00
  A 0.53 0.53 0.0 0 1 38.58 78.48
  Q 38.45 68.06 38.49 57.73
  Q 38.51 52.82 37.63 50.92
  C 34.02 43.14 23.84 46.56 22.30 53.58
  Q 22.06 54.67 22.02 62.46
  Q 21.97 70.46 22.00 78.48
  A 0.52 0.52 0.0 0 1 21.48 79.00
  L 7.75 79.00
  A 0.50 0.50 0.0 0 1 7.25 78.50
  L 7.25 7.50
  A 0.50 0.50 0.0 0 1 7.75 7.00
  L 21.38 7.00
  A 0.63 0.63 0.0 0 1 22.01 7.63
  L 22.02 39.94
  Q 22.02 40.69 22.59 40.20
  Z
  M 87.38 57.57
  A 9.99 9.99 0.0 0 0 77.39 47.58
  A 9.99 9.99 0.0 0 0 67.40 57.57
  A 9.99 9.99 0.0 0 0 77.39 67.56
  A 9.99 9.99 0.0 0 0 87.38 57.57
  Z"
/>
<path d="
  M 188.50 61.75
  L 188.50 8.12
  A 1.13 1.12 0.0 0 1 189.63 7.00
  L 202.73 7.00
  A 0.55 0.54 -0.0 0 1 203.28 7.54
  L 203.24 39.90
  Q 203.24 40.55 203.72 40.12
  Q 213.16 31.76 225.31 36.92
  Q 233.33 40.33 234.51 48.75
  Q 235.20 53.63 234.65 78.49
  A 0.52 0.52 0.0 0 1 234.13 79.00
  L 220.30 79.00
  A 0.52 0.52 0.0 0 1 219.78 78.49
  Q 219.72 66.24 219.75 54.00
  C 219.78 44.29 205.35 44.23 203.52 53.61
  Q 203.41 54.16 203.31 60.28
  Q 203.15 69.33 203.30 78.39
  A 0.60 0.60 0.0 0 1 202.70 79.00
  L 189.12 79.00
  A 0.63 0.63 0.0 0 1 188.49 78.37
  L 188.51 71.03
  Q 188.52 70.34 188.22 70.97
  C 182.22 83.75 162.59 81.51 153.17 75.43
  A 0.44 0.43 35.5 0 0 152.60 75.52
  C 152.23 75.99 152.70 77.72 152.42 78.52
  A 0.71 0.70 9.1 0 1 151.75 79.00
  L 138.25 79.00
  A 0.50 0.50 0.0 0 1 137.75 78.50
  L 137.75 46.29
  Q 137.75 45.06 137.22 46.17
  L 135.62 49.52
  A 0.53 0.53 0.0 0 1 134.87 49.75
  C 129.81 46.66 122.19 46.78 119.72 52.78
  Q 118.88 54.82 118.80 60.22
  Q 118.69 69.34 118.74 78.48
  A 0.52 0.52 0.0 0 1 118.22 79.00
  L 104.50 79.00
  A 0.50 0.50 0.0 0 1 104.00 78.50
  L 104.00 36.41
  A 0.40 0.40 0.0 0 1 104.40 36.01
  L 118.12 36.00
  A 0.63 0.62 0.0 0 1 118.75 36.62
  L 118.75 41.74
  Q 118.75 42.47 119.20 41.90
  Q 125.67 33.56 135.69 35.24
  C 141.49 36.21 146.21 36.03 151.74 35.98
  A 0.69 0.69 0.0 0 1 152.43 36.66
  L 152.74 72.98
  Q 152.75 73.52 153.02 73.06
  L 157.90 64.78
  A 0.47 0.46 -54.5 0 1 158.59 64.66
  C 161.62 67.11 170.58 72.24 173.33 66.97
  Q 174.37 64.96 172.30 64.04
  Q 167.89 62.06 163.52 59.99
  Q 152.88 54.95 155.92 44.55
  C 159.50 32.32 178.90 33.97 187.73 37.90
  A 0.59 0.59 0.0 0 1 188.02 38.69
  L 183.78 47.43
  A 0.65 0.65 0.0 0 1 182.88 47.72
  Q 177.28 44.70 170.95 45.59
  A 1.28 1.26 16.2 0 0 170.13 46.03
  C 166.99 49.69 174.98 51.69 178.29 52.76
  C 182.20 54.03 187.80 57.37 188.27 61.69
  Q 188.50 63.75 188.50 61.75
  Z"
/>
<path d="
  M 377.69 49.99
  C 382.08 35.07 399.06 30.48 411.21 39.45
  Q 411.76 39.86 411.76 39.17
  L 411.75 36.63
  A 0.62 0.62 0.0 0 1 412.37 36.00
  L 439.12 36.00
  A 0.79 0.79 0.0 0 1 439.84 36.47
  L 449.82 58.78
  Q 450.09 59.38 450.36 58.78
  L 460.42 36.46
  A 0.79 0.79 0.0 0 1 461.14 35.99
  L 477.40 36.02
  A 0.45 0.45 0.0 0 1 477.80 36.69
  L 455.36 78.55
  A 0.85 0.85 0.0 0 1 454.61 79.00
  L 445.61 79.00
  A 0.88 0.87 75.3 0 1 444.85 78.55
  L 427.05 45.42
  Q 426.66 44.71 426.66 45.52
  L 426.57 78.47
  A 0.54 0.53 -0.0 0 1 426.03 79.00
  L 412.63 79.00
  A 0.62 0.62 0.0 0 1 412.01 78.38
  L 412.00 74.84
  Q 412.00 73.98 411.39 74.59
  Q 405.09 80.89 396.75 80.27
  Q 382.18 79.19 377.62 65.05
  Q 377.48 64.62 377.48 65.07
  L 377.40 78.49
  A 0.51 0.51 0.0 0 1 376.89 79.00
  L 363.88 79.00
  A 1.13 1.13 0.0 0 1 362.75 77.87
  L 362.75 74.86
  Q 362.75 74.04 362.16 74.61
  C 350.92 85.24 334.05 80.15 328.56 66.21
  Q 328.20 65.30 328.21 66.28
  L 328.25 78.50
  A 0.50 0.49 -0.6 0 1 327.75 79.00
  L 314.62 79.00
  A 1.13 1.12 90.0 0 1 313.50 77.87
  L 313.50 74.86
  Q 313.50 74.09 312.94 74.61
  Q 306.09 80.89 297.63 80.20
  C 271.58 78.08 271.41 37.27 297.43 34.96
  Q 305.64 34.23 312.68 39.47
  Q 313.26 39.90 313.26 39.18
  L 313.24 36.64
  A 0.61 0.61 0.0 0 1 313.85 36.03
  L 327.66 36.01
  A 0.59 0.59 0.0 0 1 328.25 36.60
  L 328.25 48.93
  Q 328.25 49.95 328.62 49.00
  C 334.07 35.38 350.24 29.89 362.10 39.65
  Q 362.50 39.98 362.50 39.46
  L 362.50 7.41
  A 0.40 0.40 0.0 0 1 362.90 7.01
  L 377.00 7.00
  A 0.50 0.50 0.0 0 1 377.50 7.50
  L 377.50 49.97
  Q 377.50 50.64 377.69 49.99
  Z
  M 313.63 57.58
  A 9.99 9.99 0.0 0 0 303.64 47.59
  A 9.99 9.99 0.0 0 0 293.65 57.58
  A 9.99 9.99 0.0 0 0 303.64 67.57
  A 9.99 9.99 0.0 0 0 313.63 57.58
  Z
  M 362.89 57.59
  A 9.99 9.99 0.0 0 0 352.90 47.60
  A 9.99 9.99 0.0 0 0 342.91 57.59
  A 9.99 9.99 0.0 0 0 352.90 67.58
  A 9.99 9.99 0.0 0 0 362.89 57.59
  Z
  M 412.13 57.59
  A 9.99 9.99 0.0 0 0 402.14 47.60
  A 9.99 9.99 0.0 0 0 392.15 57.59
  A 9.99 9.99 0.0 0 0 402.14 67.58
  A 9.99 9.99 0.0 0 0 412.13 57.59
  Z"
/>
<circle cx="145.38" cy="18.32" r="8.71"/>
<path d="
  M 258.41 57.37
  L 268.20 36.36
  A 0.36 0.36 0.0 0 1 268.53 36.15
  L 284.89 35.95
  A 0.36 0.36 0.0 0 1 285.21 36.47
  L 251.78 100.56
  A 0.36 0.36 0.0 0 1 251.46 100.75
  L 235.13 100.75
  A 0.36 0.36 0.0 0 1 234.82 100.22
  L 249.30 72.51
  A 0.36 0.36 0.0 0 0 249.29 72.17
  L 229.32 36.55
  A 0.36 0.36 0.0 0 1 229.63 36.01
  L 245.90 36.00
  A 0.36 0.36 0.0 0 1 246.21 36.19
  L 257.77 57.39
  A 0.36 0.36 0.0 0 0 258.41 57.37
  Z"
/>
<circle cx="483.09" cy="70.68" r="9.53"/>
</g>
</svg>
