<?xml version="1.0" encoding="UTF-8" standalone="no"?>
<svg xmlns="http://www.w3.org/2000/svg" version="1.2" baseProfile="tiny" viewBox="0 0 126 108">
<g stroke-width="2.00" fill="none" stroke-linecap="butt">
<path stroke="#797874" vector-effect="non-scaling-stroke" d="
  M 22.00 39.93
  L 22.02 7.63
  A 0.64 0.63 0.0 0 0 21.38 7.00
  L 7.75 7.00
  A 0.50 0.50 0.0 0 0 7.25 7.50
  L 7.25 78.50
  A 0.50 0.50 0.0 0 0 7.75 79.00
  L 21.48 79.00
  A 0.52 0.52 0.0 0 0 22.00 78.48
  Q 21.98 67.27 22.03 56.06
  C 22.09 44.27 38.57 43.21 38.50 54.51
  Q 38.43 66.44 38.59 78.47
  A 0.53 0.53 0.0 0 0 39.12 79.00
  L 52.88 79.00
  A 0.53 0.53 0.0 0 0 53.41 78.47
  Q 53.75 56.98 53.42 50.32
  Q 52.95 41.08 44.82 37.20
  Q 32.40 31.28 22.58 40.19
  Q 22.00 40.72 22.00 39.93"
/>
<path stroke="#797874" vector-effect="non-scaling-stroke" d="
  M 77.14 57.47
  A 0.33 0.33 0.0 0 1 76.55 57.48
  L 64.93 36.16
  A 0.33 0.33 0.0 0 0 64.64 35.99
  L 48.31 36.03
  A 0.33 0.33 0.0 0 0 48.02 36.52
  L 68.04 72.20
  A 0.33 0.33 0.0 0 1 68.05 72.52
  L 53.52 100.27
  A 0.33 0.33 0.0 0 0 53.82 100.75
  L 70.25 100.75
  A 0.33 0.33 0.0 0 0 70.54 100.57
  L 103.91 36.53
  A 0.33 0.33 0.0 0 0 103.62 36.05
  L 87.32 35.98
  A 0.33 0.33 0.0 0 0 87.02 36.17
  L 77.14 57.47"
/>
<path stroke="#797874" vector-effect="non-scaling-stroke" d="
  M 118.88 70.69
  A 9.54 9.54 0.0 0 0 109.34 61.15
  A 9.54 9.54 0.0 0 0 99.80 70.69
  A 9.54 9.54 0.0 0 0 109.34 80.23
  A 9.54 9.54 0.0 0 0 118.88 70.69"
/>
</g>
<path fill="#000000" d="
  M 0.00 0.00
  L 126.00 0.00
  L 126.00 108.00
  L 0.00 108.00
  L 0.00 0.00
  Z
  M 22.00 39.93
  L 22.02 7.63
  A 0.64 0.63 0.0 0 0 21.38 7.00
  L 7.75 7.00
  A 0.50 0.50 0.0 0 0 7.25 7.50
  L 7.25 78.50
  A 0.50 0.50 0.0 0 0 7.75 79.00
  L 21.48 79.00
  A 0.52 0.52 0.0 0 0 22.00 78.48
  Q 21.98 67.27 22.03 56.06
  C 22.09 44.27 38.57 43.21 38.50 54.51
  Q 38.43 66.44 38.59 78.47
  A 0.53 0.53 0.0 0 0 39.12 79.00
  L 52.88 79.00
  A 0.53 0.53 0.0 0 0 53.41 78.47
  Q 53.75 56.98 53.42 50.32
  Q 52.95 41.08 44.82 37.20
  Q 32.40 31.28 22.58 40.19
  Q 22.00 40.72 22.00 39.93
  Z
  M 77.14 57.47
  A 0.33 0.33 0.0 0 1 76.55 57.48
  L 64.93 36.16
  A 0.33 0.33 0.0 0 0 64.64 35.99
  L 48.31 36.03
  A 0.33 0.33 0.0 0 0 48.02 36.52
  L 68.04 72.20
  A 0.33 0.33 0.0 0 1 68.05 72.52
  L 53.52 100.27
  A 0.33 0.33 0.0 0 0 53.82 100.75
  L 70.25 100.75
  A 0.33 0.33 0.0 0 0 70.54 100.57
  L 103.91 36.53
  A 0.33 0.33 0.0 0 0 103.62 36.05
  L 87.32 35.98
  A 0.33 0.33 0.0 0 0 87.02 36.17
  L 77.14 57.47
  Z
  M 118.88 70.69
  A 9.54 9.54 0.0 0 0 109.34 61.15
  A 9.54 9.54 0.0 0 0 99.80 70.69
  A 9.54 9.54 0.0 0 0 109.34 80.23
  A 9.54 9.54 0.0 0 0 118.88 70.69
  Z"
/>
<g fill="#f1efe7">
<path d="
  M 22.58 40.19
  Q 32.40 31.28 44.82 37.20
  Q 52.95 41.08 53.42 50.32
  Q 53.75 56.98 53.41 78.47
  A 0.53 0.53 0.0 0 1 52.88 79.00
  L 39.12 79.00
  A 0.53 0.53 0.0 0 1 38.59 78.47
  Q 38.43 66.44 38.50 54.51
  C 38.57 43.21 22.09 44.27 22.03 56.06
  Q 21.98 67.27 22.00 78.48
  A 0.52 0.52 0.0 0 1 21.48 79.00
  L 7.75 79.00
  A 0.50 0.50 0.0 0 1 7.25 78.50
  L 7.25 7.50
  A 0.50 0.50 0.0 0 1 7.75 7.00
  L 21.38 7.00
  A 0.64 0.63 -0.0 0 1 22.02 7.63
  L 22.00 39.93
  Q 22.00 40.72 22.58 40.19
  Z"
/>
<path d="
  M 77.14 57.47
  L 87.02 36.17
  A 0.33 0.33 0.0 0 1 87.32 35.98
  L 103.62 36.05
  A 0.33 0.33 0.0 0 1 103.91 36.53
  L 70.54 100.57
  A 0.33 0.33 0.0 0 1 70.25 100.75
  L 53.82 100.75
  A 0.33 0.33 0.0 0 1 53.52 100.27
  L 68.05 72.52
  A 0.33 0.33 0.0 0 0 68.04 72.20
  L 48.02 36.52
  A 0.33 0.33 0.0 0 1 48.31 36.03
  L 64.64 35.99
  A 0.33 0.33 0.0 0 1 64.93 36.16
  L 76.55 57.48
  A 0.33 0.33 0.0 0 0 77.14 57.47
  Z"
/>
<circle cx="109.34" cy="70.69" r="9.54"/>
</g>
</svg>
