<?xml version="1.0" encoding="UTF-8" standalone="no"?>
<svg xmlns="http://www.w3.org/2000/svg" version="1.2" baseProfile="tiny" viewBox="0 0 126 108">
<g stroke-width="2.00" fill="none" stroke-linecap="butt">
<path stroke="#797874" vector-effect="non-scaling-stroke" d="
  M 22.00 39.95
  L 22.00 7.50
  A 0.50 0.50 0.0 0 0 21.50 7.00
  L 7.65 7.01
  A 0.40 0.40 0.0 0 0 7.25 7.41
  L 7.25 78.50
  A 0.50 0.50 0.0 0 0 7.75 79.00
  L 21.46 79.00
  A 0.51 0.51 0.0 0 0 21.97 78.49
  Q 22.03 67.50 21.99 56.49
  Q 21.97 50.08 26.94 47.48
  C 30.57 45.57 34.88 46.37 37.11 49.85
  C 39.97 54.31 38.52 72.44 38.57 78.47
  A 0.54 0.53 89.4 0 0 39.10 79.00
  L 52.70 79.00
  A 0.60 0.60 0.0 0 0 53.30 78.40
  Q 53.25 65.72 53.22 53.05
  C 53.21 45.21 51.43 40.00 44.26 36.93
  Q 32.08 31.70 22.40 40.14
  Q 22.00 40.49 22.00 39.95"
/>
<path stroke="#797874" vector-effect="non-scaling-stroke" d="
  M 77.14 57.49
  A 0.35 0.35 0.0 0 1 76.52 57.51
  L 64.93 36.16
  A 0.35 0.35 0.0 0 0 64.62 35.98
  L 48.45 36.04
  A 0.35 0.35 0.0 0 0 48.15 36.56
  L 68.08 72.17
  A 0.35 0.35 0.0 0 1 68.08 72.50
  L 53.64 100.24
  A 0.35 0.35 0.0 0 0 53.95 100.75
  L 70.20 100.75
  A 0.35 0.35 0.0 0 0 70.51 100.56
  L 103.89 36.51
  A 0.35 0.35 0.0 0 0 103.58 36.00
  L 87.34 36.00
  A 0.35 0.35 0.0 0 0 87.03 36.20
  L 77.14 57.49"
/>
<path stroke="#797874" vector-effect="non-scaling-stroke" d="
  M 118.85 70.67
  A 9.49 9.49 0.0 0 0 109.36 61.18
  A 9.49 9.49 0.0 0 0 99.87 70.67
  A 9.49 9.49 0.0 0 0 109.36 80.16
  A 9.49 9.49 0.0 0 0 118.85 70.67"
/>
</g>
<path fill="#f1efe7" d="
  M 0.00 0.00
  L 126.00 0.00
  L 126.00 108.00
  L 0.00 108.00
  L 0.00 0.00
  Z
  M 22.00 39.95
  L 22.00 7.50
  A 0.50 0.50 0.0 0 0 21.50 7.00
  L 7.65 7.01
  A 0.40 0.40 0.0 0 0 7.25 7.41
  L 7.25 78.50
  A 0.50 0.50 0.0 0 0 7.75 79.00
  L 21.46 79.00
  A 0.51 0.51 0.0 0 0 21.97 78.49
  Q 22.03 67.50 21.99 56.49
  Q 21.97 50.08 26.94 47.48
  C 30.57 45.57 34.88 46.37 37.11 49.85
  C 39.97 54.31 38.52 72.44 38.57 78.47
  A 0.54 0.53 89.4 0 0 39.10 79.00
  L 52.70 79.00
  A 0.60 0.60 0.0 0 0 53.30 78.40
  Q 53.25 65.72 53.22 53.05
  C 53.21 45.21 51.43 40.00 44.26 36.93
  Q 32.08 31.70 22.40 40.14
  Q 22.00 40.49 22.00 39.95
  Z
  M 77.14 57.49
  A 0.35 0.35 0.0 0 1 76.52 57.51
  L 64.93 36.16
  A 0.35 0.35 0.0 0 0 64.62 35.98
  L 48.45 36.04
  A 0.35 0.35 0.0 0 0 48.15 36.56
  L 68.08 72.17
  A 0.35 0.35 0.0 0 1 68.08 72.50
  L 53.64 100.24
  A 0.35 0.35 0.0 0 0 53.95 100.75
  L 70.20 100.75
  A 0.35 0.35 0.0 0 0 70.51 100.56
  L 103.89 36.51
  A 0.35 0.35 0.0 0 0 103.58 36.00
  L 87.34 36.00
  A 0.35 0.35 0.0 0 0 87.03 36.20
  L 77.14 57.49
  Z
  M 118.85 70.67
  A 9.49 9.49 0.0 0 0 109.36 61.18
  A 9.49 9.49 0.0 0 0 99.87 70.67
  A 9.49 9.49 0.0 0 0 109.36 80.16
  A 9.49 9.49 0.0 0 0 118.85 70.67
  Z"
/>
<g fill="#000000">
<path d="
  M 22.40 40.14
  Q 32.08 31.70 44.26 36.93
  C 51.43 40.00 53.21 45.21 53.22 53.05
  Q 53.25 65.72 53.30 78.40
  A 0.60 0.60 0.0 0 1 52.70 79.00
  L 39.10 79.00
  A 0.54 0.53 89.4 0 1 38.57 78.47
  C 38.52 72.44 39.97 54.31 37.11 49.85
  C 34.88 46.37 30.57 45.57 26.94 47.48
  Q 21.97 50.08 21.99 56.49
  Q 22.03 67.50 21.97 78.49
  A 0.51 0.51 0.0 0 1 21.46 79.00
  L 7.75 79.00
  A 0.50 0.50 0.0 0 1 7.25 78.50
  L 7.25 7.41
  A 0.40 0.40 0.0 0 1 7.65 7.01
  L 21.50 7.00
  A 0.50 0.50 0.0 0 1 22.00 7.50
  L 22.00 39.95
  Q 22.00 40.49 22.40 40.14
  Z"
/>
<path d="
  M 77.14 57.49
  L 87.03 36.20
  A 0.35 0.35 0.0 0 1 87.34 36.00
  L 103.58 36.00
  A 0.35 0.35 0.0 0 1 103.89 36.51
  L 70.51 100.56
  A 0.35 0.35 0.0 0 1 70.20 100.75
  L 53.95 100.75
  A 0.35 0.35 0.0 0 1 53.64 100.24
  L 68.08 72.50
  A 0.35 0.35 0.0 0 0 68.08 72.17
  L 48.15 36.56
  A 0.35 0.35 0.0 0 1 48.45 36.04
  L 64.62 35.98
  A 0.35 0.35 0.0 0 1 64.93 36.16
  L 76.52 57.51
  A 0.35 0.35 0.0 0 0 77.14 57.49
  Z"
/>
<circle cx="109.36" cy="70.67" r="9.49"/>
</g>
</svg>
